<?xml version="1.0" encoding="utf-8"?>
<!-- Generator: Adobe Illustrator 16.0.0, SVG Export Plug-In . SVG Version: 6.00 Build 0)  -->
<!DOCTYPE svg PUBLIC "-//W3C//DTD SVG 1.1//EN" "http://www.w3.org/Graphics/SVG/1.1/DTD/svg11.dtd">
<svg version="1.1" id="Layer_1" xmlns="http://www.w3.org/2000/svg" xmlns:xlink="http://www.w3.org/1999/xlink" x="0px" y="0px"
	 width="72px" height="72px" viewBox="0 0 72 72" enable-background="new 0 0 72 72" xml:space="preserve">
<g>
	<defs>
		<rect id="SVGID_1_" width="72" height="72"/>
	</defs>
	<clipPath id="SVGID_2_">
		<use xlink:href="#SVGID_1_"  overflow="visible"/>
	</clipPath>
	<g clip-path="url(#SVGID_2_)">
		<path fill="#FFFFFF" d="M0.24,72.24c0-24,0-48,0-72c24,0,48,0,72,0c0,24,0,48,0,72C48.24,72.24,24.24,72.24,0.24,72.24z
			 M44.336,22.045c0.168,0.166,0.336,0.332,0.505,0.497c-0.548,0.745-1.115,1.477-1.635,2.241c-0.199,0.294-0.421,0.676-0.387,0.992
			c0.023,0.226,0.437,0.538,0.713,0.583c0.729,0.119,1.514,0.282,2.21,0.127c3.706-0.822,6.246-3.211,8.103-6.385
			c0.964-1.647,1.774-3.443,3.92-3.769c2.218-0.336,4.452-0.586,6.688-0.758c1.472-0.113,2.959,0.01,4.438-0.03
			c1.683-0.045,2.413-1.334,1.526-2.736c-0.257-0.406-0.8-0.623-1.188-0.955c-0.459-0.392-0.986-0.75-1.322-1.234
			c-1.861-2.688-4.277-4.646-7.435-5.53c-3.375-0.945-6.812-1.118-10.321-0.76c-4.827,0.492-9.422,1.616-13.698,3.977
			c-0.545,0.301-1.372,0.291-2.019,0.167c-1.499-0.285-2.949-0.878-4.454-1.066c-1.613-0.201-3.359-0.423-4.877-0.011
			c-1.727,0.469-2.132,1.759-0.734,3.112c0.459,0.445,0.912,0.898,1.349,1.365c0.184,0.197,0.451,0.434,0.457,0.66
			c0.049,1.688,0.226,3.36-1.053,4.829c-1.237,1.419-2.48,2.91-3.336,4.567c-2.272,4.397-4.42,8.865-6.455,13.377
			c-1.315,2.916-2.179,6.01-2.057,9.261c0.045,1.2-0.456,1.87-1.481,2.273c-0.472,0.186-0.97,0.303-1.44,0.491
			c-2.575,1.034-5.155,2.055-7.704,3.15c-0.355,0.153-0.543,0.696-0.809,1.059c0.077,0.091,0.155,0.183,0.232,0.273
			c0.95-0.164,1.899-0.459,2.851-0.467c1.904-0.015,3.812,0.094,5.715,0.216c1.892,0.121,3.788,0.259,5.665,0.521
			c0.684,0.095,1.354,0.453,1.777-0.313c0.524-0.953,0.915-2.067,0.026-2.948c-0.984-0.979-0.827-2.174-0.503-3.114
			c0.594-1.724,1.381-3.457,2.448-4.925c2.12-2.919,4.398-5.734,6.773-8.452c1.885-2.157,4.356-3.601,6.914-4.88
			C37.283,25.676,40.804,23.85,44.336,22.045z M48.118,57.889c0,3.996,0,7.893,0,11.826c1.008,0,1.941,0,2.968,0
			c0-1.229,0.022-2.384-0.01-3.536c-0.017-0.61,0.209-0.835,0.824-0.875c1.791-0.115,2.373,0.334,2.621,2.139
			c0.305,2.224,0.333,2.239,2.61,2.358c0.401,0.021,0.797,0.161,1.2,0.247c-0.61-2.095-1.205-4.136-1.834-6.292
			c0.051-0.042,0.354-0.246,0.588-0.513c0.918-1.047,0.91-2.257,0.491-3.484c-0.365-1.069-1.181-1.795-2.28-1.84
			C52.946,57.822,50.588,57.889,48.118,57.889z M41.063,69.74c0-1.435,0-2.731,0-4.251c1.181,0,2.253,0.063,3.314-0.014
			c2.003-0.146,3.129-1.52,3.169-3.743c0.041-2.302-0.929-3.612-2.922-3.846c-0.879-0.104-1.712-0.338-2.674-0.148
			c-1.254,0.247-2.593,0.061-3.89,0.061c0,4.049,0,7.971,0,11.941C39.062,69.74,39.963,69.74,41.063,69.74z M14.399,57.932
			c0,3.966,0,7.886,0,11.726c0.584,0,1.201-0.119,1.746,0.026c0.941,0.253,1.125-0.124,1.104-0.945
			c-0.034-1.379-0.009-2.761-0.009-4.246c1.945,0,3.688,0,5.473,0c0-0.73,0-1.349,0-2.148c-1.831,0-3.604,0-5.374,0
			c0-0.879,0-1.572,0-2.382c1.998,0,3.899,0,5.857,0c0-0.735,0-1.351,0-2.03C20.192,57.932,17.252,57.932,14.399,57.932z
			 M24.123,57.93c0,3.967,0,7.854,0,11.792c1.012,0,1.945,0,2.932,0c0-3.958,0-7.844,0-11.792
			C26.055,57.93,25.149,57.93,24.123,57.93z M34.236,57.885c0,4.009,0,7.931,0,11.837c1.015,0,1.919,0,2.864,0
			c0-3.967,0-7.863,0-11.837C36.105,57.885,35.177,57.885,34.236,57.885z M27.417,69.792c1.671,0,3.256,0,4.841-0.001
			c0.517,0,1.086,0.095,1.063-0.727c-0.02-0.722-0.007-1.521-0.964-1.561c-1.621-0.068-3.248-0.02-4.941-0.02
			C27.417,68.297,27.417,68.985,27.417,69.792z"/>
		<path fill-rule="evenodd" clip-rule="evenodd" d="M44.336,22.045c-3.532,1.804-7.053,3.63-10.599,5.404
			c-2.558,1.279-5.028,2.723-6.914,4.88c-2.375,2.717-4.653,5.533-6.773,8.452c-1.066,1.468-1.854,3.201-2.448,4.925
			c-0.324,0.94-0.481,2.136,0.503,3.114c0.888,0.881,0.498,1.995-0.026,2.948c-0.422,0.767-1.093,0.408-1.777,0.313
			c-1.876-0.262-3.772-0.399-5.665-0.521c-1.903-0.122-3.811-0.23-5.715-0.216c-0.952,0.008-1.901,0.303-2.851,0.467
			c-0.077-0.091-0.155-0.183-0.232-0.273c0.266-0.362,0.453-0.905,0.809-1.059c2.548-1.096,5.129-2.116,7.704-3.15
			c0.47-0.188,0.969-0.306,1.44-0.491c1.026-0.403,1.526-1.073,1.481-2.273c-0.122-3.251,0.742-6.345,2.057-9.261
			c2.035-4.513,4.183-8.98,6.455-13.377c0.856-1.658,2.1-3.148,3.336-4.567c1.279-1.468,1.103-3.141,1.053-4.829
			c-0.006-0.226-0.273-0.463-0.457-0.66c-0.437-0.467-0.889-0.92-1.349-1.365c-1.397-1.353-0.992-2.643,0.734-3.112
			c1.518-0.412,3.264-0.19,4.877,0.011c1.505,0.188,2.955,0.781,4.454,1.066c0.647,0.123,1.474,0.134,2.019-0.167
			c4.276-2.361,8.871-3.484,13.698-3.977c3.51-0.358,6.946-0.186,10.321,0.76c3.157,0.884,5.573,2.842,7.435,5.53
			c0.336,0.485,0.863,0.842,1.322,1.234c0.388,0.332,0.931,0.549,1.188,0.955c0.887,1.402,0.156,2.691-1.526,2.736
			c-1.479,0.04-2.966-0.083-4.438,0.03c-2.236,0.172-4.471,0.422-6.688,0.758c-2.146,0.326-2.956,2.122-3.92,3.769
			c-1.856,3.174-4.396,5.562-8.103,6.385c-0.696,0.155-1.481-0.009-2.21-0.127c-0.276-0.045-0.689-0.357-0.713-0.583
			c-0.034-0.315,0.188-0.698,0.387-0.992c0.52-0.765,1.087-1.496,1.635-2.241C44.672,22.377,44.504,22.211,44.336,22.045z"/>
		<path fill-rule="evenodd" clip-rule="evenodd" d="M48.118,57.889c2.47,0,4.828-0.066,7.179,0.03c1.1,0.045,1.915,0.771,2.28,1.84
			c0.419,1.228,0.427,2.438-0.491,3.484c-0.233,0.267-0.537,0.471-0.588,0.513c0.629,2.156,1.224,4.197,1.834,6.292
			c-0.403-0.086-0.799-0.226-1.2-0.247c-2.277-0.119-2.306-0.135-2.61-2.358c-0.248-1.805-0.83-2.254-2.621-2.139
			c-0.615,0.04-0.841,0.265-0.824,0.875c0.032,1.152,0.01,2.307,0.01,3.536c-1.026,0-1.96,0-2.968,0
			C48.118,65.781,48.118,61.885,48.118,57.889z M51.156,63.275c1.018-0.156,1.979-0.171,2.822-0.494
			c0.397-0.152,0.808-0.917,0.771-1.369c-0.034-0.434-0.572-1.055-1.008-1.179c-0.798-0.229-1.684-0.155-2.586-0.21
			C51.156,61.161,51.156,62.093,51.156,63.275z"/>
		<path fill-rule="evenodd" clip-rule="evenodd" d="M41.063,69.74c-1.101,0-2.002,0-3.002,0c0-3.971,0-7.893,0-11.941
			c1.297,0,2.636,0.187,3.89-0.061c0.962-0.189,1.795,0.045,2.674,0.148c1.993,0.233,2.963,1.544,2.922,3.846
			c-0.04,2.224-1.166,3.597-3.169,3.743c-1.062,0.077-2.134,0.014-3.314,0.014C41.063,67.009,41.063,68.306,41.063,69.74z
			 M41.08,63.358c1.246,0.006,2.484,0.343,3.166-0.831c0.262-0.45,0.263-1.564,0.005-1.711c-0.909-0.517-1.982-0.744-3.171-1.14
			C41.08,61.127,41.08,62.179,41.08,63.358z"/>
		<path fill-rule="evenodd" clip-rule="evenodd" d="M14.399,57.932c2.854,0,5.793,0,8.798,0c0,0.68,0,1.295,0,2.03
			c-1.958,0-3.86,0-5.857,0c0,0.81,0,1.503,0,2.382c1.77,0,3.543,0,5.374,0c0,0.8,0,1.418,0,2.148c-1.785,0-3.528,0-5.473,0
			c0,1.485-0.025,2.867,0.009,4.246c0.02,0.821-0.163,1.198-1.104,0.945c-0.545-0.146-1.162-0.026-1.746-0.026
			C14.399,65.817,14.399,61.897,14.399,57.932z"/>
		<path fill-rule="evenodd" clip-rule="evenodd" d="M24.123,57.93c1.026,0,1.932,0,2.932,0c0,3.948,0,7.834,0,11.792
			c-0.986,0-1.92,0-2.932,0C24.123,65.784,24.123,61.896,24.123,57.93z"/>
		<path fill-rule="evenodd" clip-rule="evenodd" d="M34.236,57.885c0.94,0,1.869,0,2.864,0c0,3.974,0,7.87,0,11.837
			c-0.945,0-1.849,0-2.864,0C34.236,65.815,34.236,61.894,34.236,57.885z"/>
		<path fill-rule="evenodd" clip-rule="evenodd" d="M27.417,69.792c0-0.807,0-1.495,0-2.308c1.693,0,3.32-0.049,4.941,0.02
			c0.957,0.04,0.944,0.839,0.964,1.561c0.022,0.821-0.547,0.727-1.063,0.727C30.674,69.792,29.088,69.792,27.417,69.792z"/>
		<path fill-rule="evenodd" clip-rule="evenodd" fill="#FFFFFF" d="M51.156,63.275c0-1.183,0-2.114,0-3.252
			c0.902,0.055,1.788-0.02,2.586,0.21c0.436,0.124,0.974,0.745,1.008,1.179c0.036,0.452-0.374,1.217-0.771,1.369
			C53.136,63.104,52.174,63.119,51.156,63.275z"/>
		<path fill-rule="evenodd" clip-rule="evenodd" fill="#FFFFFF" d="M41.08,63.358c0-1.18,0-2.231,0-3.682
			c1.188,0.396,2.262,0.623,3.171,1.14c0.258,0.146,0.257,1.261-0.005,1.711C43.564,63.701,42.326,63.364,41.08,63.358z"/>
	</g>
</g>
</svg>
